<?xml version="1.0" encoding="UTF-8" standalone="no"?>
<!DOCTYPE svg PUBLIC "-//W3C//DTD SVG 1.1//EN" "http://www.w3.org/Graphics/SVG/1.1/DTD/svg11.dtd">
<!-- Created with Vectornator (http://vectornator.io/) -->
<svg height="841.0mm" stroke-miterlimit="10" style="fill-rule:nonzero;clip-rule:evenodd;stroke-linecap:round;stroke-linejoin:round;" version="1.1" viewBox="0 0 3370.82 2384.24" width="1189.0mm" xml:space="preserve" xmlns="http://www.w3.org/2000/svg" xmlns:xlink="http://www.w3.org/1999/xlink">
<defs/>
<g id="レイヤー-1">
<path d="M295.725 424.389C325.117 425.474 438.515 427.51 457.619 446.893C467.922 457.345 381.188 530.89 372.681 543.575C347.691 580.84 422.06 665.913 343.089 697.83C309.222 711.518 286.185 654.949 276.241 638.511" fill="none" opacity="1" stroke="#ffffff" stroke-linecap="square" stroke-linejoin="bevel" stroke-width="35.5146"/>
<path d="M304.508 443.223C218.835 535.642 122.34 808.276 96.0463 931.976" fill="none" opacity="1" stroke="#ffffff" stroke-linecap="square" stroke-linejoin="bevel" stroke-width="35.5146"/>
<path d="M620.838 510.431C570.553 558.771 413.414 696.407 456.224 642.513" fill="none" opacity="1" stroke="#ffffff" stroke-linecap="square" stroke-linejoin="bevel" stroke-width="35.5146"/>
<path d="M600.519 539.428C613.402 538.241 742.025 552.458 741.919 563.819C741.448 614.476 577.456 715.597 540.151 746.091C509.174 771.413 412.943 843.88 443.92 818.559" fill="none" opacity="1" stroke="#ffffff" stroke-linecap="square" stroke-linejoin="bevel" stroke-width="35.5146"/>
<path d="M560.855 584.237C529.48 573.323 613.088 622.284 637.951 642.612" fill="none" opacity="1" stroke="#ffffff" stroke-linecap="square" stroke-linejoin="bevel" stroke-width="35.5146"/>
<path d="M488.22 642.372C517.905 666.643 535.558 693.504 557.857 722.947" fill="none" opacity="1" stroke="#ffffff" stroke-linecap="square" stroke-linejoin="bevel" stroke-width="35.5146"/>
<path d="M781.896 622.806C772.868 619.666 888.04 628.335 898.655 636.372C902.454 639.249 685.378 769.388 693.158 760.995" fill="none" opacity="1" stroke="#ffffff" stroke-linecap="square" stroke-linejoin="bevel" stroke-width="35.5146"/>
<path d="M734.007 680.533C729.201 675.657 729.965 675.685 733.136 682.484C759.403 738.81 804.218 789.779 842.157 839.873" fill="none" opacity="1" stroke="#ffffff" stroke-linecap="square" stroke-linejoin="bevel" stroke-width="35.5146"/>
<path d="M555.382 805.487C507.254 788.746 657.748 821.166 709.644 823.082" fill="none" opacity="1" stroke="#ffffff" stroke-linecap="square" stroke-linejoin="bevel" stroke-width="35.5146"/>
<path d="M386.551 886.513C477.016 896.231 568.138 907.128 659.803 907.178C681.362 907.19 745.685 909.557 724.177 911.538" fill="none" opacity="1" stroke="#ffffff" stroke-linecap="square" stroke-linejoin="bevel" stroke-width="35.5146"/>
<path d="M595.428 902.818C589.958 976.724 501.917 1202.39 472.673 1029.17" fill="none" opacity="1" stroke="#ffffff" stroke-linecap="square" stroke-linejoin="bevel" stroke-width="35.5146"/>
<path d="M477.658 952.015C431.987 936.129 298.742 997.975 344.412 1013.86" fill="none" opacity="1" stroke="#ffffff" stroke-linecap="square" stroke-linejoin="bevel" stroke-width="35.5146"/>
<path d="M654.226 1002.16C644.282 1042.06 700.139 1092.97 731.67 1114.76" fill="none" opacity="1" stroke="#ffffff" stroke-linecap="square" stroke-linejoin="bevel" stroke-width="35.5146"/>
<path d="M1062.05 727.02C1026.24 730.317 1247.01 732.538 1245.2 756.919C1244.03 772.76 1167.46 806.972 1153.71 824.273C1143.45 837.189 1169.61 1114.62 1072.43 940.262" fill="none" opacity="1" stroke="#ffffff" stroke-linecap="square" stroke-linejoin="bevel" stroke-width="35.5146"/>
<path d="M1070.45 741.212C1068.83 915.114 821.967 1070.46 834.348 1220.35" fill="none" opacity="1" stroke="#ffffff" stroke-linecap="square" stroke-linejoin="bevel" stroke-width="35.5146"/>
<path d="M1288.25 853.039C1262.7 844.151 1537.86 845.924 1550 871.958C1564.94 904.011 1481.16 991.925 1459.9 1018.69" fill="none" opacity="1" stroke="#ffffff" stroke-linecap="square" stroke-linejoin="bevel" stroke-width="35.5146"/>
<path d="M1226.21 964.449C1299.68 975.607 1519.11 946.795 1450.07 974.698" fill="none" opacity="1" stroke="#ffffff" stroke-linecap="square" stroke-linejoin="bevel" stroke-width="35.5146"/>
<path d="M1203.03 1071.34C1128.23 1045.32 1370.28 1025.84 1445.09 1051.86" fill="none" opacity="1" stroke="#ffffff" stroke-linecap="square" stroke-linejoin="bevel" stroke-width="35.5146"/>
<path d="M1279.22 906.251C1277.93 890.642 1223.76 1027.71 1217.84 1038.18C1178.56 1107.68 1127.32 1171.1 1090.1 1241.69C1079.41 1261.98 1069.56 1323.69 1060.09 1303.38C1048.12 1277.72 1195.06 1230.55 1204.56 1227.41" fill="none" opacity="1" stroke="#ffffff" stroke-linecap="square" stroke-linejoin="bevel" stroke-width="35.5146"/>
<path d="M1470.04 1166.48C1441.91 1137.93 1306.25 1210.94 1252.24 1192.15" fill="none" opacity="1" stroke="#ffffff" stroke-linecap="square" stroke-linejoin="bevel" stroke-width="35.5146"/>
<path d="M1243.11 1119.1C1219.08 1172.9 1335.47 1337.69 1386.29 1365.01" fill="none" opacity="1" stroke="#ffffff" stroke-linecap="square" stroke-linejoin="bevel" stroke-width="35.5146"/>
<path d="M1650.17 1109.67C1649.09 1109.3 1748.46 1127.51 1780.06 1132.31" fill="none" opacity="1" stroke="#ffffff" stroke-linecap="square" stroke-linejoin="bevel" stroke-width="35.5146"/>
<path d="M1774.98 1083.21C1772.49 1053.14 1601.23 1218.78 1601.37 1218.92" fill="none" opacity="1" stroke="#ffffff" stroke-linecap="square" stroke-linejoin="bevel" stroke-width="35.5146"/>
<path d="M1833.32 1139.57C1849.99 1152.19 1876 1164.37 1871.28 1186.58" fill="none" opacity="1" stroke="#ffffff" stroke-linecap="square" stroke-linejoin="bevel" stroke-width="35.5146"/>
<path d="M1763.51 1169.38C1656.22 1409.62 1629.2 1202.27 1749.78 1315.63" fill="none" opacity="1" stroke="#ffffff" stroke-linecap="square" stroke-linejoin="bevel" stroke-width="35.5146"/>
<path d="M2024.56 1217.36C1858.22 1311.55 1848.62 1232.47 1914.04 1404.32" fill="none" opacity="1" stroke="#ffffff" stroke-linecap="square" stroke-linejoin="bevel" stroke-width="35.5146"/>
<path d="M2136.27 1269.74C2133.02 1268.61 2233.13 1280.15 2251.77 1280.62C2258.05 1280.78 2425.67 1263.22 2427.61 1271.91C2440.53 1329.74 2253.55 1587.01 2217.16 1424.11" fill="none" opacity="1" stroke="#ffffff" stroke-linecap="square" stroke-linejoin="bevel" stroke-width="35.5146"/>
<path d="M2297.85 1188.45C2321.98 1189.34 2297.27 1234.93 2283.59 1253.37C2204.71 1359.7 2077.7 1445.94 1971.76 1528.09C1936.9 1555.12 1829.38 1631.12 1858.9 1599.28" fill="none" opacity="1" stroke="#ffffff" stroke-linecap="square" stroke-linejoin="bevel" stroke-width="35.5146"/>
<path d="M2477.41 1374.89C2476.7 1374.64 2475.81 1376.66 2476.54 1376.84C2541.3 1392.43 2652.18 1409.77 2716.65 1383.72" fill="none" opacity="1" stroke="#ffffff" stroke-linecap="square" stroke-linejoin="bevel" stroke-width="35.5146"/>
<path d="M2688.97 1286.18C2688.23 1365.66 2393.24 1938.95 2395.71 1673.31" fill="none" opacity="1" stroke="#ffffff" stroke-linecap="square" stroke-linejoin="bevel" stroke-width="35.5146"/>
<path d="M2625.96 1410.78C2576.85 1479.07 2427.52 1533.88 2355.28 1571.34C2313.88 1592.8 2192.26 1653.18 2223.02 1620" fill="none" opacity="1" stroke="#ffffff" stroke-linecap="square" stroke-linejoin="bevel" stroke-width="35.5146"/>
<path d="M2830.58 1425.61C2784.87 1423.92 2971.54 1438.57 2993.35 1446.16C3054.55 1467.45 2893.2 1527.21 2839.96 1564.11C2673.33 1679.59 2524.19 1780.78 2533 1772.91" fill="none" opacity="1" stroke="#ffffff" stroke-linecap="square" stroke-linejoin="bevel" stroke-width="35.5146"/>
<path d="M2789.28 1600.58C2818.8 1639.56 2824.29 1681.31 2838.88 1726.03" fill="none" opacity="1" stroke="#ffffff" stroke-linecap="square" stroke-linejoin="bevel" stroke-width="35.5146"/>
<path d="M3065.57 1570.46C3068.1 1536.24 3024.58 1629.15 3000.35 1655.97C2981.11 1677.28 2764.41 1908.12 2913.04 1823.96" fill="none" opacity="1" stroke="#ffffff" stroke-linecap="square" stroke-linejoin="bevel" stroke-width="35.5146"/>
<path d="M3186.44 1646.31C3185.47 1634.55 3291.7 1670.89 3306.37 1685.78" fill="none" opacity="1" stroke="#ffffff" stroke-linecap="square" stroke-linejoin="bevel" stroke-width="35.5146"/>
<path d="M3039.88 1809.47C3025.61 1866.71 3140.16 1927.76 3188.35 1944.52" fill="none" opacity="1" stroke="#ffffff" stroke-linecap="square" stroke-linejoin="bevel" stroke-width="35.5146"/>
</g>
</svg>
